PathFileType	4	(X/Y/Z)	C:/Users/beibeiliu/ov580/test_trc/User3\sequence.8_training_dense_left.trc
DataRate	CameraRate	NumFrames	NumMarkers	Units	OrigDataRate	OrigDataStartFrame	OrigNumFrames
120	120	17	19	mm	120	27	161
Frame#	Time	ThumbCMC			ThumbMCP			ThumbIP			ThumbTip			IndexMCP			IndexPIP			IndexTip			MiddleMCP			MiddlePIP			MiddleTip			RingMCP			RingPIP			RingTip			PinkyMCP			PinkyPIP			PinkyTip			BackHand1			BackHand2			BackHand3	
		X0	Y0	Z0	X1	Y1	Z1	X2	Y2	Z2	X3	Y3	Z3	X4	Y4	Z4	X5	Y5	Z5	X6	Y6	Z6	X7	Y7	Z7	X8	Y8	Z8	X9	Y9	Z9	X10	Y10	Z10	X11	Y11	Z11	X12	Y12	Z12	X13	Y13	Z13	X14	Y14	Z14	X15	Y15	Z15	X16	Y16	Z16	X17	Y17	Z17	X18	Y18	Z18	
26	0.216667	-125.143	-56.9976	33.4158	-106.288	-68.5482	10.7982	-97.4245	-77.8114	-14.4508	-98.2736	-89.4897	-35.3236	-137.354	-33.9027	-37.694	-135.152	-37.6313	-68.9365	-130.131	-57.6711	-88.0528	-167.24	-29.4599	-45.7852	-159.818	-35.2624	-74.8532	-157.712	-62.1698	-97.9358	-183.777	-37.7231	-39.1373	-185.941	-48.7452	-68.3776	-181.54	-78.0304	-82.0228	-206.825	-51.5973	-21.8045	-208.044	-60.6978	-48.8424	-205.582	-82.9388	-62.324	-189.019	-35.0373	12.4507	-190.332	-34.5426	45.9605	-154.529	-31.6978	27.0458	
27	0.225	-130.164	-56.8181	33.5713	-107.214	-68.7583	13.3906	-95.1787	-77.4075	-16.762	-94.261	-89.9437	-37.9753	-143.215	-34.0564	-37.7186	-132.179	-38.2043	-70.6245	-133.409	-58.1531	-89.6834	-164.222	-29.0305	-46.5331	-164.72	-35.3782	-77.2225	-157.633	-66.1704	-100.529	-188.79	-38.5111	-37.3598	-189.159	-50.1155	-68.6003	-186.818	-75.2837	-81.027	-209.763	-51.4105	-21.6331	-210.757	-58.5916	-45.3692	-205.846	-83.705	-60.3495	-185.627	-35.2798	14.5996	-190.765	-36.3644	45.0997	-157.357	-31.3719	24.5225	
28	0.233333	-127.065	-56.8445	32.4308	-112.352	-69.0243	13.9671	-98.9129	-78.7008	-12.9613	-97.5073	-89.9312	-33.7309	-142.415	-34.031	-39.9624	-136.321	-38.6236	-68.5656	-133.576	-62.81	-92.1504	-164.253	-30.7986	-42.0888	-162.058	-36.248	-77.685	-161.726	-62.0313	-97.2006	-187.205	-39.3957	-39.6102	-186.953	-48.9711	-68.8185	-184.647	-74.9465	-81.2989	-206.451	-51.5255	-21.9906	-212.793	-62.2741	-48.1937	-206.982	-86.0013	-61.6347	-190.514	-34.1276	11.7257	-189.294	-35.3643	46.3936	-157.656	-30.4926	27.7689	
29	0.241667	-128.64	-58.2897	35.9937	-112.887	-68.8327	11.7501	-94.2017	-78.6833	-10.6924	-94.1008	-91.4422	-33.9149	-144.529	-35.1333	-37.871	-134.613	-39.1506	-68.5411	-128.948	-62.344	-90.3292	-169.051	-29.9285	-44.3125	-164.321	-36.117	-76.1111	-159.962	-65.722	-100.198	-187.158	-40.479	-38.0406	-188.77	-49.7601	-66.7571	-188.731	-76.7951	-80.6651	-205.19	-53.104	-22.2845	-212.197	-62.5108	-49.1125	-205.009	-86.2444	-61.3883	-185.888	-35.6605	16.2507	-188.263	-37.3135	43.6466	-156.235	-31.3384	28.3466	
30	0.25	-131.509	-57.4624	32.0272	-108.829	-68.3422	10.8622	-99.7154	-79.7437	-10.4356	-97.6562	-91.3531	-35.2145	-139.798	-33.8809	-41.1912	-137.271	-38.6505	-67.3922	-133.052	-62.5876	-91.9153	-169.336	-31.428	-41.6437	-166.053	-35.9113	-76.1383	-163.163	-62.3143	-97.9224	-188.44	-39.2669	-38.9987	-192.019	-51.2803	-67.3666	-183.901	-77.848	-80.4995	-208.068	-53.1145	-23.4906	-213.894	-62.2418	-46.0768	-206.214	-88.8832	-62.7156	-191.464	-34.0273	13.3235	-190.896	-36.9691	44.9005	-158.621	-30.9866	27.1137	
31	0.258333	-129.902	-56.9043	35.0261	-107.373	-69.064	12.8858	-98.9553	-78.2999	-9.77436	-92.8408	-90.5828	-33.5046	-142.612	-33.6955	-41.1163	-133.271	-38.6387	-67.3152	-129.401	-60.1117	-89.7401	-165.99	-29.5209	-45.3731	-162.866	-36.4975	-76.1071	-158.561	-63.2839	-100.133	-190.117	-40.7378	-36.1989	-189.666	-47.6885	-63.8033	-185.33	-76.8724	-80.0863	-209.303	-53.5644	-19.6967	-215.357	-62.7844	-47.4563	-209.042	-83.5947	-60.0768	-189.341	-33.4673	14.9786	-187.963	-36.8386	46.0537	-153.504	-31.5971	26.413	
32	0.266667	-128.706	-56.0923	34.0066	-109.014	-67.2993	14.106	-95.0512	-78.2058	-10.1757	-96.1406	-88.8701	-33.2834	-139.584	-33.2568	-35.7178	-134.255	-37.8452	-68.0749	-131.707	-58.1242	-89.7522	-167.386	-29.6848	-41.9769	-163.822	-33.0839	-74.7042	-158.453	-61.1627	-98.1373	-186.258	-37.9144	-35.8805	-190.299	-45.6091	-63.9307	-186.251	-73.885	-79.0415	-209.86	-52.0482	-21.168	-210.99	-59.4349	-47.3028	-205.578	-84.8591	-61.0773	-189.366	-32.323	14.1293	-187.195	-35.7295	46.0148	-158.749	-32.0489	27.9998	
33	0.275	-125.177	-54.3806	35.5126	-106.756	-66.2641	12.63	-94.937	-77.4322	-14.9247	-95.5683	-88.1138	-32.499	-143.175	-32.735	-37.7729	-136.24	-36.1649	-68.572	-131.522	-57.6461	-89.5649	-164.675	-27.8793	-44.549	-163.142	-32.3493	-74.4397	-158.869	-58.3121	-97.3089	-185.427	-36.8479	-38.2828	-189.137	-45.34	-64.1383	-185.433	-75.5517	-79.1963	-210.013	-49.3824	-24.4989	-210.508	-59.3128	-47.5077	-209.261	-82.9029	-61.2125	-185.154	-30.9137	13.7807	-187.002	-32.8522	41.7216	-157.114	-28.4586	26.5294	
34	0.283333	-126.861	-54.135	35.3927	-105.597	-67.0525	14.6404	-95.9347	-77.0548	-10.4563	-96.6995	-87.7708	-33.7884	-140.186	-32.1427	-36.5415	-134.481	-37.7139	-71.1106	-131.628	-54.3478	-88.7961	-163.687	-26.5243	-45.5383	-163.01	-33.7965	-76.9031	-158.691	-63.0668	-99.2508	-187.513	-36.2442	-36.7317	-185.947	-45.5502	-67.3329	-184.343	-76.0854	-79.7208	-207.829	-50.7619	-19.6041	-210.709	-59.2444	-48.9268	-204.096	-82.5793	-61.8464	-184.614	-30.7953	13.9277	-187.271	-33.1844	45.6863	-157.546	-28.7045	26.3242	
35	0.291667	-125.006	-55.1543	37.2229	-106.592	-65.8442	11.3402	-97.2994	-76.0048	-10.8651	-97.4491	-88.1466	-33.8197	-137.946	-30.7082	-37.638	-128.916	-37.3505	-70.5302	-128.487	-54.5742	-88.0855	-166.748	-26.6079	-46.1031	-160.178	-33.94	-76.536	-156.037	-61.1905	-99.1143	-187.422	-36.3275	-37.3084	-186.648	-46.3358	-68.0532	-182.901	-73.2107	-79.3304	-207.898	-47.9039	-24.8104	-210.02	-59.4358	-49.8882	-206.581	-82.3909	-59.6756	-186.97	-29.7625	12.0768	-188.643	-31.6656	43.7456	-156.188	-30.3848	28.1507	
36	0.3	-124.454	-54.3833	36.854	-107.898	-65.4699	11.693	-97.0652	-75.9193	-10.5115	-91.6239	-88.4773	-34.9836	-141.738	-31.7362	-38.7429	-134.192	-34.7165	-66.7866	-131.56	-54.6974	-88.8048	-164.861	-27.1545	-43.0561	-159.305	-31.786	-73.7609	-160.57	-59.3624	-97.6081	-186.764	-36.9028	-34.9795	-187.083	-43.825	-63.9087	-181.342	-75.9946	-80.2104	-205.202	-48.7301	-25.1552	-208.014	-58.5191	-48.1497	-205.212	-84.9678	-60.3736	-188.69	-31.8458	15.7457	-187.7	-31.4394	43.0103	-156.241	-30.0465	27.9531	
37	0.308333	-126.957	-54.9127	34.6938	-108.225	-65.5373	10.5732	-97.2526	-76.5877	-9.72217	-91.8924	-88.4156	-33.6473	-141.619	-31.7134	-42.2928	-133.579	-37.0965	-69.6989	-128.35	-57.535	-89.1032	-167.482	-28.7509	-41.6027	-162.974	-33.2264	-74.292	-162.271	-59.9308	-96.9346	-188.923	-37.3647	-35.1986	-186.113	-46.5469	-67.2562	-186.485	-77.9076	-80.5124	-207.866	-49.8165	-19.1834	-212.886	-59.4027	-46.036	-205.572	-79.5685	-60.6603	-184.335	-31.9645	17.6877	-191.285	-32.4368	44.7514	-152.931	-28.9424	26.5039	
38	0.316667	-130.563	-55.3245	35.4719	-107.469	-67.7633	14.2075	-95.756	-77.7187	-10.6081	-97.171	-89.5986	-30.6072	-142.214	-33.1141	-36.8946	-131.327	-38.4955	-68.4362	-132.211	-57.9347	-89.376	-163.773	-28.5677	-41.1179	-163.638	-34.0509	-74.6216	-163.09	-62.9707	-99.0148	-186.213	-37.1403	-36.728	-188.438	-45.9032	-65.7629	-186.605	-74.4093	-79.6678	-207.638	-50.353	-22.6041	-215.048	-60.0389	-45.9624	-208.286	-86.6825	-61.457	-189.282	-34.2207	17.1387	-187.447	-33.1851	44.3049	-154.272	-28.8099	28.1571	
39	0.325	-131.61	-55.8789	35.5361	-112.951	-67.6943	15.382	-97.3035	-78.3474	-12.8356	-97.1428	-90.4154	-37.3312	-142.546	-33.0435	-41.7223	-134.171	-37.0095	-66.275	-130.873	-59.5712	-89.736	-169.072	-28.0898	-44.6926	-164.918	-35.4103	-75.9585	-164.351	-59.5609	-96.8179	-186.333	-37.6866	-35.642	-190.105	-47.6291	-65.6136	-189.139	-77.8045	-79.893	-209.764	-50.242	-23.8665	-214.219	-61.0505	-47.0919	-207.073	-86.8045	-59.1236	-186.889	-32.0543	16.9028	-190.686	-34.8982	44.6441	-154.18	-30.7512	30.2522	
40	0.333333	-125.45	-56.5663	34.5931	-110.366	-67.3049	12.0994	-96.2483	-77.1382	-12.703	-95.1014	-89.6138	-35.9641	-143.776	-32.0937	-41.8209	-134.02	-38.6494	-68.1901	-133.784	-57.4846	-89.112	-168.398	-28.6462	-43.9537	-164.908	-34.007	-74.3911	-159.222	-62.0175	-97.7437	-189.75	-37.7799	-35.9911	-190.352	-45.7946	-65.254	-185.865	-77.3856	-79.5589	-207.134	-49.6886	-20.603	-215.508	-60.0088	-45.6035	-207.068	-82.6303	-60.9499	-191.045	-32.8888	13.9173	-189.574	-34.5903	45.2533	-157.162	-29.923	29.4084	
41	0.341667	-125.668	-54.9534	35.2034	-111.957	-67.5963	15.277	-95.0979	-77.6407	-14.5996	-98.4722	-87.8867	-36.7905	-141.842	-32.3354	-38.3517	-134.33	-35.622	-66.2322	-134.176	-55.3302	-88.1875	-168.655	-27.3309	-44.8473	-164.189	-33.1466	-75.3847	-164.906	-61.292	-98.0951	-190.913	-36.8714	-35.214	-188.408	-44.9257	-64.9165	-184.841	-73.8541	-79.3734	-211.357	-49.1704	-21.7919	-214.27	-59.3906	-46.9843	-208.435	-85.8611	-61.0863	-188.63	-32.6623	15.4151	-186.693	-34.4866	44.7431	-154.619	-30.3623	30.5852	
42	0.35	-128.045	-55.5005	32.4077	-107.298	-66.1032	13.8871	-100.027	-76.4281	-15.3623	-100.028	-87.4987	-34.4811	-139.542	-30.698	-37.3663	-133.382	-36.968	-69.4266	-130.875	-58.5317	-90.8762	-167.491	-26.7633	-45.9995	-165.761	-32.75	-76.0415	-159.928	-62.7952	-99.7308	-190.116	-37.044	-35.3445	-193.063	-46.4364	-65.9996	-186.301	-73.1374	-80.162	-210.53	-48.9973	-21.8224	-212.954	-57.9949	-47.6465	-206.609	-81.4286	-61.5705	-187.813	-32.2361	17.9392	-188.352	-34.8468	46.1059	-155.977	-30.3288	30.4741	
